<?xml version="1.0" encoding="utf-8"?>
<!-- Generated by IcoMoon.io -->
<!DOCTYPE svg PUBLIC "-//W3C//DTD SVG 1.1//EN" "http://www.w3.org/Graphics/SVG/1.1/DTD/svg11.dtd">
<svg version="1.1" xmlns="http://www.w3.org/2000/svg" xmlns:xlink="http://www.w3.org/1999/xlink" width="32" height="16" viewBox="0 0 32 16">
<g transform="translate(0 0)">
	<path d="M14 4v-2h-14v11c0 0.552 0.448 1 1 1h13.5c0.828 0 1.5-0.672 1.5-1.5v-8.5h-2zM13 13h-12v-10h12v10zM2 5h10v1h-10zM8 7h4v1h-4zM8 9h4v1h-4zM8 11h3v1h-3zM2 7h5v5h-5z" fill="#ffffff" />
</g>
<g transform="translate(16 0)">
	<path d="M13.334 0h-10.667c-1.467 0-2.667 1.2-2.667 2.667v10.666c0 1.468 1.2 2.667 2.667 2.667l10.667-0c1.467 0 2.666-1.199 2.666-2.667v-10.666c0-1.467-1.2-2.667-2.666-2.667zM13.603 8h-2.603v7h-3v-7h-1.446v-2.29h1.446v-1.487c0-2.021 0.872-3.223 3.248-3.223h2.738v2.478h-2.236c-0.664-0.001-0.746 0.346-0.746 0.992l-0.004 1.24h3l-0.397 2.29z" fill="#ffffff" />
</g>
</svg>
